<?xml version="1.0" encoding="UTF-8" standalone="no"?>
<svg
   xmlns:dc="http://purl.org/dc/elements/1.1/"
   xmlns:cc="http://creativecommons.org/ns#"
   xmlns:rdf="http://www.w3.org/1999/02/22-rdf-syntax-ns#"
   xmlns:svg="http://www.w3.org/2000/svg"
   xmlns="http://www.w3.org/2000/svg"
   xmlns:sodipodi="http://sodipodi.sourceforge.net/DTD/sodipodi-0.dtd"
   xmlns:inkscape="http://www.inkscape.org/namespaces/inkscape"
   version="1.1"
   id="Layer_1"
   x="0px"
   y="0px"
   viewBox="0 0 1804.45 481.58"
   style="enable-background:new 0 0 1804.45 481.58;"
   xml:space="preserve"
   sodipodi:docname="Nibiaa FInal Logo 2.0.svg"
   inkscape:version="1.0.1 (3bc2e813f5, 2020-09-07)"><metadata
   id="metadata128"><rdf:RDF><cc:Work
       rdf:about=""><dc:format>image/svg+xml</dc:format><dc:type
         rdf:resource="http://purl.org/dc/dcmitype/StillImage" /><dc:title></dc:title></cc:Work></rdf:RDF></metadata><defs
   id="defs126" /><sodipodi:namedview
   pagecolor="#ffffff"
   bordercolor="#666666"
   borderopacity="1"
   objecttolerance="10"
   gridtolerance="10"
   guidetolerance="10"
   inkscape:pageopacity="0"
   inkscape:pageshadow="2"
   inkscape:window-width="1366"
   inkscape:window-height="745"
   id="namedview124"
   showgrid="false"
   inkscape:zoom="0.4083268"
   inkscape:cx="1007.9327"
   inkscape:cy="164.18463"
   inkscape:window-x="-8"
   inkscape:window-y="-8"
   inkscape:window-maximized="1"
   inkscape:current-layer="Layer_1" />
<style
   type="text/css"
   id="style2">
	.st0{fill:url(#SVGID_1_);}
	.st1{fill:url(#SVGID_00000073711944475704868070000017545263156792777639_);}
	.st2{fill:url(#SVGID_00000049223462491863911740000017420933973771677116_);}
	.st3{fill:url(#SVGID_00000090275194044296524390000001749306521659272587_);}
	.st4{fill:url(#SVGID_00000144320542214637687680000015421594050108461208_);}
</style>
<path
   d="M629.98,162.14c42.04,0,75.87,18.97,101.47,56.9c11.38,18.34,17.07,37.3,17.07,56.9v91.42c0,3.32-0.43,6.66-1.44,9.82  c-4.48,14.06-13.49,21.09-27.01,21.09l0,0c-3.49,0-6.99-0.47-10.3-1.59c-13.37-4.54-20.05-12.54-20.05-24.01l-0.61-4.26  c-0.23-1.58-0.34-3.18-0.34-4.78v-84.84c0-25.57-14.03-43.7-42.09-54.38c-2.88-1.1-5.94-1.68-9.02-1.9l-6.93-0.5  c-1.14-0.08-2.29-0.13-3.43-0.1c-21.92,0.59-38.73,12.6-50.44,36.01c-3.16,5.85-4.74,14.38-4.74,25.6v82.82  c0,3.34-0.45,6.69-1.45,9.87c-4.63,14.71-13.31,22.06-26.05,22.06h-3.79c-15.57,0-24.92-9.25-28.06-27.74  c-0.29-1.72-0.39-3.48-0.39-5.22v-81.78c0-51.49,24.5-89.05,73.5-112.68c1.56-0.75,3.22-1.4,4.88-1.91  C605.53,164.41,618.6,162.14,629.98,162.14z"
   id="path4"
   style="fill:#ffffff" />
<path
   d="M822.03,74.26c9.97,1.49,17.45,8.35,22.45,20.59c1.15,2.81,1.72,5.84,1.72,8.87v3.42c0,10.57-6.54,18.76-19.62,24.55  c-3,1.33-6.27,2-9.55,2h-1.18c-16.26,0-25.94-9.34-29.05-28.04c-0.25-1.52-0.37-3.09-0.26-4.63c0.77-10.35,6.78-18.32,18.03-23.91  c1.8-0.89,3.74-1.45,5.72-1.81l4.58-0.83C817.23,74.04,819.66,73.91,822.03,74.26z M820.49,162.42  c12.49,1.56,20.81,9.65,24.95,24.29c0.55,1.93,0.75,3.95,0.75,5.95v179.06c0,10.46-6.31,18.58-18.93,24.37  c-1.89,0.87-3.93,1.39-5.99,1.68l-1.88,0.27c-1.1,0.16-2.22,0.24-3.33,0.24l0,0c-2.04,0-4.08-0.22-6.04-0.78  c-15.09-4.36-22.63-12.63-22.63-24.82l-0.71-4.98c-0.16-1.1-0.24-2.22-0.24-3.33V195.34c0-15.09,6.9-26.01,19.1-31.62  c1.02-0.47,1.64-0.56,3.88-1.06l3.21-0.4C816.17,161.96,817.88,162.1,820.49,162.42z"
   id="path6"
   style="fill:#ffffff" />
<path
   d="M1193.78,74.26c9.97,1.49,17.45,8.35,22.45,20.59c1.15,2.81,1.72,5.84,1.72,8.87v3.42c0,10.57-6.54,18.76-19.62,24.55  c-3,1.33-6.27,2-9.55,2h-1.18c-16.26,0-25.9-6.3-29.01-24.99c-0.25-1.52-0.42-6.14-0.3-7.68c0.77-10.35,6.78-18.32,18.03-23.91  c1.8-0.89,3.74-1.45,5.72-1.81l4.58-0.83C1188.97,74.04,1191.4,73.91,1193.78,74.26z M1192.23,162.42  c12.49,1.56,20.81,9.65,24.95,24.29c0.55,1.93,0.75,3.95,0.75,5.95v179.06c0,10.46-6.31,18.58-18.93,24.37  c-1.89,0.87-3.93,1.39-5.99,1.68l-1.88,0.27c-1.1,0.16-2.22,0.24-3.33,0.24h0c-2.04,0-4.08-0.22-6.04-0.78  c-15.09-4.36-22.63-12.63-22.63-24.82l-0.71-4.98c-0.16-1.1-0.24-2.22-0.24-3.33V195.34c0-15.09,6.34-25.28,19.01-30.57  c1.21-0.51,2.49-0.86,3.77-1.15l3.42-0.76C1186.97,162.28,1189.63,162.1,1192.23,162.42z"
   id="path8"
   style="fill:#ffffff" />
<path
   d="M1373.46,162.14c54.34,1.8,87.03,22.41,109.51,62.38c6.85,10.58,9.03,36.09,9.03,52.37v94.83c0,9.83-5.58,17.6-16.74,23.31  c-2.96,1.52-6.21,2.46-9.5,2.93l0,0c-1.47,0.21-2.95,0.32-4.44,0.32h-2.51c-12.36,0-20.8-7.84-25.32-23.53  c-0.82-2.85-1.23-5.82-1.23-8.79l0-84.33c0-27.74-13.82-46.66-41.46-56.77c-2.05-0.75-4.21-1.23-6.37-1.52l-8.46-1.13  c-1.67-0.22-3.37-0.35-5.05-0.29c-24.92,0.89-42.56,15.01-52.9,42.34c-1.02,2.68-1.56,5.53-1.76,8.39l-0.47,6.66  c-0.13,1.79-0.17,2.83-0.15,3.85c0.52,23.91,12.98,41.03,37.4,51.39c2.91,1.24,6.02,1.95,9.15,2.44  c20.39,3.17,28.2,6.56,34.21,11.56c7.01,6.1,7.41,11.61,7.41,20.3v1.9c-2.74,11.6-7.01,18.09-15.95,22.99  c-5.7,3.13-12.19,4.51-18.68,4.51h-0.46c-32.61,0-60.47-13.5-83.57-40.52c-13.85-16.19-23.83-35.54-27.61-56.52  c-1.11-6.18-1.67-12.09-1.67-17.72v-5.69c0-41.75,20.72-75.73,62.18-101.93c1.53-0.97,3.19-1.78,4.83-2.52  C1340.54,165.4,1357.62,161.62,1373.46,162.14z"
   id="path10"
   style="fill:#ffffff" />
<path
   d="M1647.53,162.14c46.31,0,83.99,19.31,109.12,64.19c7.59,15.33,9.42,34.28,9.42,50.56v94.83c0,9.83-5.58,17.6-16.74,23.31  c-2.96,1.52-6.21,2.46-9.5,2.93l0,0c-1.47,0.21-2.95,0.32-4.44,0.32h-2.51c-12.36,0-20.8-7.84-25.32-23.53  c-0.82-2.85-1.23-5.82-1.23-8.79l0-84.33c0-27.74-13.82-46.66-41.46-56.77c-2.05-0.75-4.21-1.23-6.37-1.52l-8.46-1.13  c-1.67-0.22-3.37-0.35-5.06-0.29c-24.92,0.89-42.56,15.01-52.9,42.35c-1.01,2.68-1.56,5.53-1.76,8.39l-0.48,6.66  c-0.13,1.8-0.17,2.83-0.15,3.86c0.44,20.45,9.63,35.94,27.57,46.47c7.48,4.4,15.93,6.85,24.53,8.02c16.17,2.2,22.7,5.55,28.85,10.24  c6.1,5.57,7.24,12.26,7.24,20.96l-0.51,3.89c-0.46,2.06-1.23,4.19-2.26,6.3c-5.88,12.03-18.57,19.22-31.96,19.22h-0.36  c-32.61,0-60.47-13.5-83.57-40.51c-13.85-16.2-23.84-35.55-27.61-56.52c-1.11-6.18-1.67-12.09-1.67-17.72v-5.69  c0-32.5,12.56-60.29,37.68-83.37c16.67-15.32,37.21-26.16,59.46-30.35C1634.07,162.8,1640.89,162.14,1647.53,162.14z"
   id="path12"
   style="fill:#ffffff" />
<path
   d="M916.93,74.06c9.23,0,16.6,4.03,22.1,12.1c4.37,6.41,6.35,14.16,6.35,21.91V278.9c0,23.93,9.73,41.2,29.18,51.82  c8.24,4.5,17.43,6.99,26.77,7.92h0h5.69c18.25,0,32.62-7.62,43.1-22.85c7.09-10.31,10.95-22.51,11.91-34.99v0v-2.84  c0-25.13-14.54-43.15-43.62-54.05c-13.82-5.68-21.73-7.17-30.62-10.81c-8.23-3.37-13.89-11.37-13.95-20.27l0-0.21  c3.63-20.23,13.75-30.35,30.35-30.35c37.61,0,69.23,16.12,94.83,48.36c15.17,20.39,22.76,42.2,22.76,65.43v9.48  c0,42.2-22.44,76.34-67.33,102.42c-16.12,6.96-31.29,10.43-45.52,10.43h-10.43c-29.72,0-56.58-12.33-80.61-36.98  c-21.5-21.49-32.24-50.58-32.24-87.25V111.64c0-3.58,0.19-7.17,0.83-10.69C889.71,83.02,899.86,74.06,916.93,74.06z"
   id="path14"
   style="fill:#ffffff" />
<circle
   cx="816.73"
   cy="103.88"
   r="32.78"
   id="circle16"
   style="fill:#ffffff" />
<circle
   cx="1188.07"
   cy="103.88"
   r="32.78"
   id="circle18"
   style="fill:#ffffff" />
<radialGradient
   id="SVGID_1_"
   cx="238.1216"
   cy="246.2485"
   r="92.3596"
   gradientUnits="userSpaceOnUse">
	<stop
   offset="8.043184e-03"
   style="stop-color:#F3F7F9"
   id="stop20" />
	<stop
   offset="0.1184"
   style="stop-color:#D6DBE4"
   id="stop22" />
	<stop
   offset="0.3026"
   style="stop-color:#AEB9CC"
   id="stop24" />
	<stop
   offset="0.4687"
   style="stop-color:#94A3BB"
   id="stop26" />
	<stop
   offset="0.6093"
   style="stop-color:#8597B2"
   id="stop28" />
	<stop
   offset="0.7076"
   style="stop-color:#7F93AF"
   id="stop30" />
</radialGradient>
<polygon
   class="st0"
   points="333.17,241.22 333.17,256.86 270.98,256.86 270.98,280.18 247.66,280.18 247.66,335.83 232.02,335.83   232.02,280.18 208.7,280.18 208.7,256.86 143.07,256.86 143.07,241.22 208.7,241.22 208.7,217.87 232.71,217.87 232.71,156.66   248.33,156.66 248.33,217.87 270.98,217.87 270.98,241.22 "
   id="polygon33" />
<radialGradient
   id="SVGID_00000129203836781694822460000006390568805972796814_"
   cx="240.8247"
   cy="100.774"
   r="64.569"
   gradientUnits="userSpaceOnUse">
	<stop
   offset="0.0494"
   style="stop-color:#FFFDF2"
   id="stop35" />
	<stop
   offset="0.1721"
   style="stop-color:#FFE8B2"
   id="stop37" />
	<stop
   offset="0.2947"
   style="stop-color:#FFD87B"
   id="stop39" />
	<stop
   offset="0.3966"
   style="stop-color:#FFCD4D"
   id="stop41" />
	<stop
   offset="0.4736"
   style="stop-color:#FFC72B"
   id="stop43" />
	<stop
   offset="0.5169"
   style="stop-color:#FFC41A"
   id="stop45" />
	<stop
   offset="0.5828"
   style="stop-color:#F9BC1E"
   id="stop47" />
	<stop
   offset="0.6858"
   style="stop-color:#EDA823"
   id="stop49" />
	<stop
   offset="0.813"
   style="stop-color:#DD8B26"
   id="stop51" />
	<stop
   offset="0.9583"
   style="stop-color:#CB6727"
   id="stop53" />
	<stop
   offset="1"
   style="stop-color:#C65B28"
   id="stop55" />
</radialGradient>
<circle
   style="fill:url(#SVGID_00000129203836781694822460000006390568805972796814_);"
   cx="240.82"
   cy="99.75"
   r="66.42"
   id="circle58" />
<radialGradient
   id="SVGID_00000039815194632815794430000001900237238569290167_"
   cx="89.3067"
   cy="247.9038"
   r="65.2113"
   gradientUnits="userSpaceOnUse">
	<stop
   offset="8.043184e-03"
   style="stop-color:#FDEDF4"
   id="stop60" />
	<stop
   offset="0.089"
   style="stop-color:#F4D8E9"
   id="stop62" />
	<stop
   offset="0.335"
   style="stop-color:#E2A2C8"
   id="stop64" />
	<stop
   offset="0.5579"
   style="stop-color:#D67AB1"
   id="stop66" />
	<stop
   offset="0.75"
   style="stop-color:#CF5AA2"
   id="stop68" />
	<stop
   offset="0.9038"
   style="stop-color:#CB4398"
   id="stop70" />
	<stop
   offset="1"
   style="stop-color:#C93A95"
   id="stop72" />
</radialGradient>
<circle
   style="fill:url(#SVGID_00000039815194632815794430000001900237238569290167_);"
   cx="90.46"
   cy="246.25"
   r="66.42"
   id="circle75" />
<radialGradient
   id="SVGID_00000093877177837186022340000015456694378651029406_"
   cx="392.9872"
   cy="247.0648"
   r="66.366"
   gradientUnits="userSpaceOnUse">
	<stop
   offset="0"
   style="stop-color:#FDEDF4"
   id="stop77" />
	<stop
   offset="0.0675"
   style="stop-color:#DAE2F3"
   id="stop79" />
	<stop
   offset="0.1883"
   style="stop-color:#A4D4F1"
   id="stop81" />
	<stop
   offset="0.2935"
   style="stop-color:#79CAF0"
   id="stop83" />
	<stop
   offset="0.3779"
   style="stop-color:#58C4F0"
   id="stop85" />
	<stop
   offset="0.4309"
   style="stop-color:#4AC2EF"
   id="stop87" />
	<stop
   offset="0.5315"
   style="stop-color:#43B6E8"
   id="stop89" />
	<stop
   offset="0.7303"
   style="stop-color:#3199D5"
   id="stop91" />
	<stop
   offset="1"
   style="stop-color:#1771B9"
   id="stop93" />
</radialGradient>
<circle
   style="fill:url(#SVGID_00000093877177837186022340000015456694378651029406_);"
   cx="391.71"
   cy="246.25"
   r="66.42"
   id="circle96" />
<radialGradient
   id="SVGID_00000018926571816506027210000005164006588569812887_"
   cx="241.1647"
   cy="388.9738"
   r="65.2113"
   gradientUnits="userSpaceOnUse">
	<stop
   offset="8.043184e-03"
   style="stop-color:#FDEDF4"
   id="stop98" />
	<stop
   offset="0.052"
   style="stop-color:#E2E3DE"
   id="stop100" />
	<stop
   offset="0.1502"
   style="stop-color:#B2D3B8"
   id="stop102" />
	<stop
   offset="0.2417"
   style="stop-color:#8BC79C"
   id="stop104" />
	<stop
   offset="0.3235"
   style="stop-color:#6BBF89"
   id="stop106" />
	<stop
   offset="0.3927"
   style="stop-color:#54BB7E"
   id="stop108" />
	<stop
   offset="0.4411"
   style="stop-color:#4BBA7A"
   id="stop110" />
	<stop
   offset="0.595"
   style="stop-color:#48B57A"
   id="stop112" />
	<stop
   offset="0.7469"
   style="stop-color:#3CAC7B"
   id="stop114" />
	<stop
   offset="0.8974"
   style="stop-color:#249D7D"
   id="stop116" />
	<stop
   offset="1"
   style="stop-color:#00927F"
   id="stop118" />
</radialGradient>
<circle
   style="fill:url(#SVGID_00000018926571816506027210000005164006588569812887_);"
   cx="241.61"
   cy="388.47"
   r="66.42"
   id="circle121" />
</svg>
